<mxfile host="app.diagrams.net" modified="2024-01-23T01:36:01.292Z" agent="Mozilla/5.0 (Windows NT 10.0; Win64; x64) AppleWebKit/537.36 (KHTML, like Gecko) Chrome/120.0.0.0 Safari/537.36" etag="ME5dY6B4aGTrwjKYC487" version="22.1.21" type="github">
  <diagram name="第 1 页" id="3uKooOr-jPmKd_cmfSqT">
    <mxGraphModel dx="3046" dy="932" grid="1" gridSize="10" guides="1" tooltips="1" connect="1" arrows="1" fold="1" page="1" pageScale="1" pageWidth="827" pageHeight="1169" math="0" shadow="0">
      <root>
        <mxCell id="0" />
        <mxCell id="1" parent="0" />
        <mxCell id="h9diVwNSZwyLOE3jBIlE-1" value="1.单例模式：&lt;br&gt;&lt;div&gt;为什么要使用单例？&lt;/div&gt;&lt;div&gt;单例存在哪些问题？&lt;/div&gt;&lt;div&gt;单例与静态类的区别？&lt;/div&gt;&lt;div&gt;有何替代的解决方案？&lt;/div&gt;" style="rounded=0;whiteSpace=wrap;html=1;fontSize=18;verticalAlign=top;align=left;" vertex="1" parent="1">
          <mxGeometry x="-790" y="50" width="440" height="250" as="geometry" />
        </mxCell>
      </root>
    </mxGraphModel>
  </diagram>
</mxfile>
